<mxfile host="app.diagrams.net" modified="2023-10-07T04:41:48.160Z" agent="Mozilla/5.0 (X11; Linux x86_64) AppleWebKit/537.36 (KHTML, like Gecko) Chrome/117.0.0.0 Safari/537.36" etag="sDkZwe-9bMFuQ0FcA1D0" version="22.0.4" type="google">
  <diagram name="Page-1" id="c7558073-3199-34d8-9f00-42111426c3f3">
    <mxGraphModel grid="1" page="1" gridSize="10" guides="1" tooltips="1" connect="1" arrows="1" fold="1" pageScale="1" pageWidth="826" pageHeight="1169" background="none" math="0" shadow="0">
      <root>
        <mxCell id="0" />
        <mxCell id="1" parent="0" />
        <mxCell id="tZwnp9U8YBUUEmJ4e2yA-96" value="&lt;p style=&quot;border-color: var(--border-color); margin: 4px 0px 0px;&quot;&gt;&lt;u style=&quot;border-color: var(--border-color);&quot;&gt;Window&lt;/u&gt;&lt;/p&gt;&lt;p style=&quot;border-color: var(--border-color); margin: 4px 0px 0px;&quot;&gt;&lt;span style=&quot;border-color: var(--border-color); font-weight: normal;&quot;&gt;&lt;br style=&quot;border-color: var(--border-color);&quot;&gt;&lt;/span&gt;&lt;/p&gt;&lt;p style=&quot;border-color: var(--border-color); margin: 4px 0px 0px;&quot;&gt;&lt;span style=&quot;border-color: var(--border-color); font-weight: normal;&quot;&gt;Предоставл&lt;span style=&quot;border-color: var(--border-color); background-color: initial;&quot;&gt;яет поверхность для рисования&lt;/span&gt;&lt;/span&gt;&lt;/p&gt;&lt;p style=&quot;border-color: var(--border-color); margin: 4px 0px 0px;&quot;&gt;&lt;span style=&quot;border-color: var(--border-color); font-weight: normal;&quot;&gt;Получает и отправляет системные&lt;br style=&quot;border-color: var(--border-color);&quot;&gt;и пользовательские события&lt;/span&gt;&lt;/p&gt;&lt;p style=&quot;border-color: var(--border-color); margin: 4px 0px 0px;&quot;&gt;&lt;span style=&quot;border-color: var(--border-color); font-weight: normal;&quot;&gt;Управляет фокусом ввода&lt;/span&gt;&lt;/p&gt;&lt;p style=&quot;border-color: var(--border-color); margin: 4px 0px 0px;&quot;&gt;&lt;span style=&quot;border-color: var(--border-color); font-weight: normal;&quot;&gt;Хранит системные хендлы&lt;/span&gt;&lt;/p&gt;" style="verticalAlign=middle;align=center;overflow=fill;fontSize=14;fontFamily=Helvetica;html=1;rounded=1;fontStyle=1;strokeWidth=3;fillColor=#b0e3e6;strokeColor=#0e8088;" vertex="1" parent="1">
          <mxGeometry x="58.5" y="770" width="311.5" height="150" as="geometry" />
        </mxCell>
        <mxCell id="tZwnp9U8YBUUEmJ4e2yA-98" value="&lt;p style=&quot;border-color: var(--border-color); text-decoration-line: underline; margin: 4px 0px 0px; font-size: 14px;&quot;&gt;&lt;font style=&quot;border-color: var(--border-color);&quot;&gt;Graphic&lt;/font&gt;&lt;/p&gt;&lt;p style=&quot;border-color: var(--border-color); text-decoration-line: underline; margin: 4px 0px 0px; font-size: 14px;&quot;&gt;&lt;font style=&quot;border-color: var(--border-color);&quot;&gt;&lt;br style=&quot;border-color: var(--border-color);&quot;&gt;&lt;/font&gt;&lt;/p&gt;&lt;p style=&quot;border-color: var(--border-color); margin: 4px 0px 0px; font-size: 14px;&quot;&gt;&lt;span style=&quot;font-weight: normal;&quot;&gt;&lt;font style=&quot;border-color: var(--border-color);&quot;&gt;Предоставляет методы для рисования&lt;br style=&quot;border-color: var(--border-color);&quot;&gt;&lt;/font&gt;на поверхности&lt;/span&gt;&lt;/p&gt;&lt;p style=&quot;border-color: var(--border-color); margin: 4px 0px 0px; font-size: 14px;&quot;&gt;&lt;span style=&quot;font-weight: normal;&quot;&gt;&lt;font style=&quot;border-color: var(--border-color);&quot;&gt;Хранит кеш системных примитивов&lt;br style=&quot;border-color: var(--border-color);&quot;&gt;&lt;/font&gt;&lt;span style=&quot;border-color: var(--border-color); background-color: initial;&quot;&gt;рисования&lt;/span&gt;&lt;/span&gt;&lt;/p&gt;" style="verticalAlign=middle;align=center;overflow=fill;fontSize=12;fontFamily=Helvetica;html=1;rounded=1;fontStyle=1;strokeWidth=3;fillColor=#b0e3e6;strokeColor=#0e8088;" vertex="1" parent="1">
          <mxGeometry x="60" y="1010" width="310" height="150" as="geometry" />
        </mxCell>
        <mxCell id="tZwnp9U8YBUUEmJ4e2yA-99" value="" style="shape=flexArrow;endArrow=classic;startArrow=classic;html=1;rounded=0;exitX=0.75;exitY=1;exitDx=0;exitDy=0;entryX=0.75;entryY=0;entryDx=0;entryDy=0;strokeWidth=2;fillColor=#6d8764;strokeColor=#3A5431;" edge="1" parent="1" source="tZwnp9U8YBUUEmJ4e2yA-96" target="tZwnp9U8YBUUEmJ4e2yA-98">
          <mxGeometry width="100" height="100" relative="1" as="geometry">
            <mxPoint x="360" y="920" as="sourcePoint" />
            <mxPoint x="460" y="820" as="targetPoint" />
          </mxGeometry>
        </mxCell>
        <mxCell id="tZwnp9U8YBUUEmJ4e2yA-100" value="                             Control&#xa;&#xa;  - Подписывается на требуемые события&#xa;  - Получает Graphic для рисования&#xa;  - Рисует себя по запросу окна&#xa;  - Посылает системные или пользовательские        события подписчикам своего окна&#xa;&#xa;&#xa;&#xa;&#xa;&#xa;" style="whiteSpace=wrap;align=left;verticalAlign=middle;fontStyle=0;strokeWidth=3;fillColor=#FFFFCC;fontSize=14;" vertex="1" parent="1">
          <mxGeometry x="58.5" y="460" width="311.5" height="230" as="geometry" />
        </mxCell>
        <mxCell id="tZwnp9U8YBUUEmJ4e2yA-105" value="&lt;b style=&quot;border-color: var(--border-color); font-size: 16px;&quot;&gt;&lt;u style=&quot;border-color: var(--border-color);&quot;&gt;Application&lt;br&gt;&lt;/u&gt;&lt;/b&gt;&lt;br&gt;&lt;br&gt;&lt;br&gt;&lt;br&gt;&lt;br&gt;&lt;br style=&quot;border-color: var(--border-color); font-size: 16px;&quot;&gt;&lt;div style=&quot;border-color: var(--border-color); font-size: 16px; text-align: left;&quot;&gt;&amp;nbsp; - Создает окна&lt;/div&gt;&lt;div style=&quot;border-color: var(--border-color); font-size: 16px; text-align: left;&quot;&gt;&lt;span style=&quot;border-color: var(--border-color); background-color: initial;&quot;&gt;&amp;nbsp; - Создает контролы и добавляет их на окна&lt;/span&gt;&lt;/div&gt;&lt;div style=&quot;border-color: var(--border-color); font-size: 16px; text-align: left;&quot;&gt;&lt;span style=&quot;border-color: var(--border-color); background-color: initial;&quot;&gt;&amp;nbsp; - Подписывается и получает системные и&lt;br style=&quot;border-color: var(--border-color);&quot;&gt;&amp;nbsp; &amp;nbsp; &amp;nbsp; &amp;nbsp; &amp;nbsp; &amp;nbsp; пользовательские&amp;nbsp;&lt;/span&gt;&lt;span style=&quot;border-color: var(--border-color); background-color: initial;&quot;&gt;события через окно&lt;/span&gt;&lt;/div&gt;&lt;div style=&quot;border-color: var(--border-color); font-size: 16px; text-align: left;&quot;&gt;&lt;span style=&quot;border-color: var(--border-color); background-color: initial;&quot;&gt;&amp;nbsp; - Генерирует события&lt;/span&gt;&lt;/div&gt;&lt;div style=&quot;border-color: var(--border-color); font-size: 16px; text-align: left;&quot;&gt;&lt;span style=&quot;border-color: var(--border-color); background-color: initial;&quot;&gt;&amp;nbsp; - Управляет темой отображения и локалью&lt;br style=&quot;border-color: var(--border-color);&quot;&gt;&amp;nbsp; - Имеет доступ к графике чтобы рисовать на окне&lt;/span&gt;&lt;/div&gt;&lt;div style=&quot;border-color: var(--border-color); font-size: 16px; text-align: left;&quot;&gt;&lt;span style=&quot;border-color: var(--border-color); background-color: initial;&quot;&gt;&amp;nbsp; - Имеет доступ к системным хендлам для&lt;br style=&quot;border-color: var(--border-color);&quot;&gt;&amp;nbsp; &amp;nbsp; &amp;nbsp; &amp;nbsp;прямого взаимодействия с ОС&amp;nbsp;при &lt;br&gt;&amp;nbsp; &amp;nbsp; &amp;nbsp; &amp;nbsp;необходимости&lt;br style=&quot;border-color: var(--border-color);&quot;&gt;&lt;/span&gt;&lt;/div&gt;&lt;div style=&quot;border-color: var(--border-color); font-size: 16px; text-align: left;&quot;&gt;&lt;span style=&quot;border-color: var(--border-color); background-color: initial;&quot;&gt;&lt;br&gt;&lt;/span&gt;&lt;/div&gt;&lt;div style=&quot;border-color: var(--border-color); font-size: 16px; text-align: left;&quot;&gt;&lt;span style=&quot;border-color: var(--border-color); background-color: initial;&quot;&gt;&lt;br&gt;&lt;/span&gt;&lt;/div&gt;&lt;div style=&quot;border-color: var(--border-color); font-size: 16px; text-align: left;&quot;&gt;&lt;br&gt;&lt;/div&gt;&lt;div style=&quot;border-color: var(--border-color); font-size: 16px; text-align: left;&quot;&gt;&lt;span style=&quot;border-color: var(--border-color); background-color: initial;&quot;&gt;&lt;br&gt;&lt;/span&gt;&lt;/div&gt;" style="ellipse;whiteSpace=wrap;html=1;fillColor=#d5e8d4;strokeColor=#82b366;strokeWidth=3;" vertex="1" parent="1">
          <mxGeometry x="-400" y="1020" width="410" height="410" as="geometry" />
        </mxCell>
        <mxCell id="tZwnp9U8YBUUEmJ4e2yA-112" style="edgeStyle=orthogonalEdgeStyle;rounded=0;orthogonalLoop=1;jettySize=auto;html=1;exitX=1;exitY=0.5;exitDx=0;exitDy=0;strokeWidth=2;entryX=0;entryY=0.5;entryDx=0;entryDy=0;" edge="1" parent="1" source="tZwnp9U8YBUUEmJ4e2yA-110" target="tZwnp9U8YBUUEmJ4e2yA-96">
          <mxGeometry relative="1" as="geometry">
            <mxPoint x="60" y="800" as="targetPoint" />
          </mxGeometry>
        </mxCell>
        <mxCell id="tZwnp9U8YBUUEmJ4e2yA-110" value="&lt;p style=&quot;border-color: var(--border-color); margin: 4px 0px 0px;&quot;&gt;&lt;u style=&quot;border-color: var(--border-color);&quot;&gt;Theme&lt;/u&gt;&lt;/p&gt;&lt;p style=&quot;border-color: var(--border-color); margin: 4px 0px 0px;&quot;&gt;&lt;br style=&quot;border-color: var(--border-color);&quot;&gt;&lt;/p&gt;&lt;p style=&quot;border-color: var(--border-color); margin: 4px 0px 0px;&quot;&gt;&lt;span style=&quot;border-color: var(--border-color); font-weight: 400;&quot;&gt;Предоставляет константы отображения&lt;br style=&quot;border-color: var(--border-color);&quot;&gt;&lt;/span&gt;&lt;span style=&quot;border-color: var(--border-color); font-weight: 400; background-color: initial;&quot;&gt;для заданной визуальной темы&lt;/span&gt;&lt;/p&gt;" style="verticalAlign=middle;align=center;overflow=fill;fontSize=14;fontFamily=Helvetica;html=1;rounded=1;fontStyle=1;strokeWidth=3;fillColor=#E6FFCC" vertex="1" parent="1">
          <mxGeometry x="-285" y="770" width="285" height="150" as="geometry" />
        </mxCell>
        <mxCell id="tZwnp9U8YBUUEmJ4e2yA-118" value="" style="endArrow=classic;html=1;rounded=0;strokeWidth=2;entryX=0.005;entryY=0.917;entryDx=0;entryDy=0;entryPerimeter=0;" edge="1" parent="1" target="tZwnp9U8YBUUEmJ4e2yA-100">
          <mxGeometry width="50" height="50" relative="1" as="geometry">
            <mxPoint x="-80" y="770" as="sourcePoint" />
            <mxPoint x="50" y="582" as="targetPoint" />
            <Array as="points">
              <mxPoint x="-80" y="670" />
            </Array>
          </mxGeometry>
        </mxCell>
        <mxCell id="tZwnp9U8YBUUEmJ4e2yA-121" value="" style="endArrow=classic;html=1;rounded=0;strokeWidth=4;fillColor=#e3c800;strokeColor=#B09500;entryX=1;entryY=0.5;entryDx=0;entryDy=0;exitX=1.003;exitY=0.917;exitDx=0;exitDy=0;exitPerimeter=0;" edge="1" parent="1" source="tZwnp9U8YBUUEmJ4e2yA-100" target="tZwnp9U8YBUUEmJ4e2yA-98">
          <mxGeometry width="50" height="50" relative="1" as="geometry">
            <mxPoint x="300" y="600" as="sourcePoint" />
            <mxPoint x="300" y="770" as="targetPoint" />
            <Array as="points">
              <mxPoint x="440" y="670" />
              <mxPoint x="440" y="1085" />
            </Array>
          </mxGeometry>
        </mxCell>
        <mxCell id="tZwnp9U8YBUUEmJ4e2yA-122" value="&lt;font style=&quot;font-size: 16px;&quot;&gt;Draw the graphic&lt;/font&gt;" style="edgeLabel;html=1;align=center;verticalAlign=middle;resizable=0;points=[];" vertex="1" connectable="0" parent="tZwnp9U8YBUUEmJ4e2yA-121">
          <mxGeometry x="0.0108" y="-1" relative="1" as="geometry">
            <mxPoint y="-161" as="offset" />
          </mxGeometry>
        </mxCell>
        <mxCell id="tZwnp9U8YBUUEmJ4e2yA-123" value="&lt;p style=&quot;border-color: var(--border-color); margin: 4px 0px 0px;&quot;&gt;&lt;u style=&quot;border-color: var(--border-color);&quot;&gt;Locale&lt;/u&gt;&lt;/p&gt;&lt;p style=&quot;border-color: var(--border-color); margin: 4px 0px 0px;&quot;&gt;&lt;br style=&quot;border-color: var(--border-color);&quot;&gt;&lt;/p&gt;&lt;p style=&quot;border-color: var(--border-color); margin: 4px 0px 0px;&quot;&gt;&lt;span style=&quot;border-color: var(--border-color); font-weight: 400;&quot;&gt;Предоставляет текстовые константы&lt;br style=&quot;border-color: var(--border-color);&quot;&gt;&lt;/span&gt;&lt;span style=&quot;border-color: var(--border-color); font-weight: 400; background-color: initial;&quot;&gt;для заданного языка пользователя&lt;/span&gt;&lt;/p&gt;" style="verticalAlign=middle;align=center;overflow=fill;fontSize=14;fontFamily=Helvetica;html=1;rounded=1;fontStyle=1;strokeWidth=3;fillColor=#E6FFCC" vertex="1" parent="1">
          <mxGeometry x="-285" y="460" width="285" height="150" as="geometry" />
        </mxCell>
        <mxCell id="tZwnp9U8YBUUEmJ4e2yA-125" value="" style="endArrow=classic;html=1;rounded=0;strokeWidth=2;entryX=-0.002;entryY=0.304;entryDx=0;entryDy=0;entryPerimeter=0;" edge="1" parent="1" target="tZwnp9U8YBUUEmJ4e2yA-100">
          <mxGeometry width="50" height="50" relative="1" as="geometry">
            <mxPoint x="-1.5" y="530.7407407407406" as="sourcePoint" />
            <mxPoint x="58.5" y="510" as="targetPoint" />
          </mxGeometry>
        </mxCell>
        <mxCell id="tZwnp9U8YBUUEmJ4e2yA-126" value="" style="endArrow=classic;html=1;rounded=0;strokeWidth=2;fillColor=#008a00;strokeColor=#005700;entryX=0.018;entryY=0.4;entryDx=0;entryDy=0;entryPerimeter=0;exitX=0.178;exitY=0.122;exitDx=0;exitDy=0;exitPerimeter=0;" edge="1" parent="1" source="tZwnp9U8YBUUEmJ4e2yA-105">
          <mxGeometry width="50" height="50" relative="1" as="geometry">
            <mxPoint x="-325.13" y="1060" as="sourcePoint" />
            <mxPoint x="-284.9999999999999" y="520" as="targetPoint" />
            <Array as="points">
              <mxPoint x="-325.13" y="520" />
            </Array>
          </mxGeometry>
        </mxCell>
        <mxCell id="tZwnp9U8YBUUEmJ4e2yA-128" value="" style="endArrow=classic;startArrow=classic;html=1;rounded=0;exitX=0.095;exitY=1;exitDx=0;exitDy=0;exitPerimeter=0;entryX=0.095;entryY=0;entryDx=0;entryDy=0;entryPerimeter=0;strokeWidth=4;fillColor=#0050ef;strokeColor=#001DBC;" edge="1" parent="1">
          <mxGeometry width="50" height="50" relative="1" as="geometry">
            <mxPoint x="290.00250000000017" y="690" as="sourcePoint" />
            <mxPoint x="290.00250000000017" y="770" as="targetPoint" />
          </mxGeometry>
        </mxCell>
        <mxCell id="tZwnp9U8YBUUEmJ4e2yA-129" value="&lt;font style=&quot;font-size: 16px;&quot;&gt;Events&lt;br&gt;&lt;/font&gt;" style="edgeLabel;html=1;align=center;verticalAlign=middle;resizable=0;points=[];" vertex="1" connectable="0" parent="tZwnp9U8YBUUEmJ4e2yA-128">
          <mxGeometry x="0.2117" y="1" relative="1" as="geometry">
            <mxPoint y="-8" as="offset" />
          </mxGeometry>
        </mxCell>
        <mxCell id="tZwnp9U8YBUUEmJ4e2yA-131" value="" style="endArrow=classic;html=1;rounded=0;entryX=0.008;entryY=0.787;entryDx=0;entryDy=0;entryPerimeter=0;exitX=0.217;exitY=0.09;exitDx=0;exitDy=0;exitPerimeter=0;strokeWidth=2;fillColor=#008a00;strokeColor=#005700;" edge="1" parent="1" source="tZwnp9U8YBUUEmJ4e2yA-105" target="tZwnp9U8YBUUEmJ4e2yA-100">
          <mxGeometry width="50" height="50" relative="1" as="geometry">
            <mxPoint x="-297.6400000000001" y="1117.06" as="sourcePoint" />
            <mxPoint x="60" y="620.05" as="targetPoint" />
            <Array as="points">
              <mxPoint x="-310" y="640" />
            </Array>
          </mxGeometry>
        </mxCell>
        <mxCell id="tZwnp9U8YBUUEmJ4e2yA-133" value="" style="endArrow=classic;html=1;rounded=0;strokeWidth=2;fillColor=#60a917;strokeColor=#2D7600;" edge="1" parent="1" source="tZwnp9U8YBUUEmJ4e2yA-105" target="tZwnp9U8YBUUEmJ4e2yA-98">
          <mxGeometry width="50" height="50" relative="1" as="geometry">
            <mxPoint x="-30" y="950" as="sourcePoint" />
            <mxPoint x="20" y="900" as="targetPoint" />
          </mxGeometry>
        </mxCell>
        <mxCell id="tZwnp9U8YBUUEmJ4e2yA-135" value="&lt;font style=&quot;font-size: 24px;&quot;&gt;&lt;b&gt;Система&lt;br&gt;&lt;br&gt;&lt;br&gt;&lt;br&gt;&lt;br&gt;&lt;br&gt;&lt;/b&gt;&lt;/font&gt;" style="html=1;whiteSpace=wrap;shape=isoCube2;backgroundOutline=1;isoAngle=15;fillColor=#b1ddf0;strokeColor=#10739e;strokeWidth=4;" vertex="1" parent="1">
          <mxGeometry x="60" y="1290" width="390" height="310" as="geometry" />
        </mxCell>
        <mxCell id="tZwnp9U8YBUUEmJ4e2yA-136" value="" style="shape=flexArrow;endArrow=classic;startArrow=classic;html=1;rounded=0;exitX=1;exitY=0.75;exitDx=0;exitDy=0;strokeWidth=2;fillColor=#b1ddf0;strokeColor=#10739e;entryX=0.897;entryY=0.226;entryDx=0;entryDy=0;entryPerimeter=0;" edge="1" parent="1" source="tZwnp9U8YBUUEmJ4e2yA-96" target="tZwnp9U8YBUUEmJ4e2yA-135">
          <mxGeometry width="100" height="100" relative="1" as="geometry">
            <mxPoint x="490" y="1090" as="sourcePoint" />
            <mxPoint x="480" y="1380" as="targetPoint" />
            <Array as="points">
              <mxPoint x="410" y="880" />
            </Array>
          </mxGeometry>
        </mxCell>
        <mxCell id="tZwnp9U8YBUUEmJ4e2yA-137" value="" style="shape=flexArrow;endArrow=classic;startArrow=classic;html=1;rounded=0;fillColor=#b1ddf0;strokeColor=#10739e;strokeWidth=2;entryX=0.354;entryY=0.084;entryDx=0;entryDy=0;entryPerimeter=0;" edge="1" parent="1" target="tZwnp9U8YBUUEmJ4e2yA-135">
          <mxGeometry width="100" height="100" relative="1" as="geometry">
            <mxPoint x="150" y="1160" as="sourcePoint" />
            <mxPoint x="590" y="990" as="targetPoint" />
          </mxGeometry>
        </mxCell>
        <mxCell id="tZwnp9U8YBUUEmJ4e2yA-138" value="" style="endArrow=classic;html=1;rounded=0;fillColor=#b1ddf0;strokeColor=#10739e;strokeWidth=2;entryX=0;entryY=0.5;entryDx=0;entryDy=0;entryPerimeter=0;" edge="1" parent="1" source="tZwnp9U8YBUUEmJ4e2yA-105" target="tZwnp9U8YBUUEmJ4e2yA-135">
          <mxGeometry width="50" height="50" relative="1" as="geometry">
            <mxPoint x="-50" y="1180" as="sourcePoint" />
            <mxPoint y="1130" as="targetPoint" />
          </mxGeometry>
        </mxCell>
        <mxCell id="5-9s22S7lr1p_YDoccKj-1" value="" style="endArrow=classic;startArrow=classic;html=1;rounded=0;strokeWidth=4;fillColor=#0050ef;strokeColor=#001DBC;exitX=0.082;exitY=1.02;exitDx=0;exitDy=0;exitPerimeter=0;" edge="1" parent="1" source="tZwnp9U8YBUUEmJ4e2yA-96" target="tZwnp9U8YBUUEmJ4e2yA-105">
          <mxGeometry width="50" height="50" relative="1" as="geometry">
            <mxPoint x="-40" y="950" as="sourcePoint" />
            <mxPoint x="-40" y="1030" as="targetPoint" />
          </mxGeometry>
        </mxCell>
        <mxCell id="5-9s22S7lr1p_YDoccKj-2" value="&lt;font style=&quot;font-size: 16px;&quot;&gt;Events&lt;br&gt;&lt;/font&gt;" style="edgeLabel;html=1;align=center;verticalAlign=middle;resizable=0;points=[];" vertex="1" connectable="0" parent="5-9s22S7lr1p_YDoccKj-1">
          <mxGeometry x="0.2117" y="1" relative="1" as="geometry">
            <mxPoint y="-8" as="offset" />
          </mxGeometry>
        </mxCell>
        <mxCell id="9Z96YE8V6c27n1tUhiQg-1" value="" style="endArrow=classic;html=1;rounded=0;entryX=0.773;entryY=0.08;entryDx=0;entryDy=0;entryPerimeter=0;exitX=0.005;exitY=0.8;exitDx=0;exitDy=0;exitPerimeter=0;strokeWidth=3;fillColor=#1ba1e2;strokeColor=#006EAF;" edge="1" parent="1" source="tZwnp9U8YBUUEmJ4e2yA-96" target="tZwnp9U8YBUUEmJ4e2yA-105">
          <mxGeometry width="50" height="50" relative="1" as="geometry">
            <mxPoint x="-120" y="770" as="sourcePoint" />
            <mxPoint x="-70" y="720" as="targetPoint" />
          </mxGeometry>
        </mxCell>
        <mxCell id="9Z96YE8V6c27n1tUhiQg-2" value="&lt;font style=&quot;font-size: 16px;&quot;&gt;Callbacks&lt;/font&gt;" style="edgeLabel;html=1;align=center;verticalAlign=middle;resizable=0;points=[];" connectable="0" vertex="1" parent="9Z96YE8V6c27n1tUhiQg-1">
          <mxGeometry x="0.1504" y="-1" relative="1" as="geometry">
            <mxPoint x="13" y="-13" as="offset" />
          </mxGeometry>
        </mxCell>
        <mxCell id="9Z96YE8V6c27n1tUhiQg-5" value="" style="endArrow=classic;html=1;rounded=0;strokeWidth=2;fillColor=#008a00;strokeColor=#005700;entryX=0.25;entryY=1;entryDx=0;entryDy=0;exitX=0.893;exitY=0.188;exitDx=0;exitDy=0;exitPerimeter=0;" edge="1" parent="1">
          <mxGeometry width="50" height="50" relative="1" as="geometry">
            <mxPoint x="-34" y="1097" as="sourcePoint" />
            <mxPoint x="136" y="920" as="targetPoint" />
          </mxGeometry>
        </mxCell>
        <mxCell id="9Z96YE8V6c27n1tUhiQg-6" value="" style="endArrow=classic;html=1;rounded=0;strokeWidth=2;fillColor=#008a00;strokeColor=#005700;entryX=0.298;entryY=1;entryDx=0;entryDy=0;entryPerimeter=0;" edge="1" parent="1">
          <mxGeometry width="50" height="50" relative="1" as="geometry">
            <mxPoint x="-198" y="1020" as="sourcePoint" />
            <mxPoint x="-200" y="920" as="targetPoint" />
          </mxGeometry>
        </mxCell>
        <mxCell id="9Z96YE8V6c27n1tUhiQg-7" value="" style="endArrow=classic;html=1;rounded=0;entryX=0.734;entryY=0.054;entryDx=0;entryDy=0;entryPerimeter=0;strokeWidth=3;fillColor=#1ba1e2;strokeColor=#006EAF;" edge="1" parent="1">
          <mxGeometry width="50" height="50" relative="1" as="geometry">
            <mxPoint x="79" y="690" as="sourcePoint" />
            <mxPoint x="-99" y="1042" as="targetPoint" />
            <Array as="points">
              <mxPoint x="20" y="750" />
              <mxPoint x="20" y="910" />
            </Array>
          </mxGeometry>
        </mxCell>
        <mxCell id="9Z96YE8V6c27n1tUhiQg-8" value="&lt;font style=&quot;font-size: 16px;&quot;&gt;Callbacks&lt;/font&gt;" style="edgeLabel;html=1;align=center;verticalAlign=middle;resizable=0;points=[];" connectable="0" vertex="1" parent="9Z96YE8V6c27n1tUhiQg-7">
          <mxGeometry x="-0.5657" relative="1" as="geometry">
            <mxPoint x="20" y="-35" as="offset" />
          </mxGeometry>
        </mxCell>
      </root>
    </mxGraphModel>
  </diagram>
</mxfile>
